# xmcd
#
# Track frame offsets:
#	150
#	21233
#	39259
#	55432
#	71428
#	88926
#	107979
#	123665
#	144443
#	159166
#	176812
#	197648
#	214416
#	240772
#
# Disc length: 3456 seconds
# Revision: 1
# Processed by: cddbd v1.5.2PL0 Copyright (c) Steve Scherf et al.
# Submitted via: dBpowerAMP V12.0
#
DISCID=c50d7e0e
DTITLE=Gregg Allman - Searching For Simplicity
DYEAR=1997
DGENRE=Blues
TTITLE0=Whippin' Post
TTITLE1=House of Blues
TTITLE2=Come Back And Help me
TTITLE3=Silence Ain't Golden Anymore
TTITLE4=Rendezvous With The Blues
TTITLE5=Wolf's a' Howlin'
TTITLE6=Love The Poison
TTITLE7=Don't Deny me
TTITLE8=Dark End of The Street
TTITLE9=Neighbor, Neighbor
TTITLE10=I've Got News For You
TTITLE11=Memphis in The Meantime
TTITLE12=Startin' Over
TTITLE13=DATA
EXTD=
EXTT0=
EXTT1=
EXTT2=
EXTT3=
EXTT4=
EXTT5=
EXTT6=
EXTT7=
EXTT8=
EXTT9=
EXTT10=
EXTT11=
EXTT12=
EXTT13=
PLAYORDER=
